<svg width="1000" height="1000" viewBox="0 0 1000 1000" fill="none" xmlns="http://www.w3.org/2000/svg">
<rect width="1000" height="1000" fill="#1D1D1D"/>
<g filter="url(#filter0_d_7_161)">
<path d="M901.5 753V200H660.5V491" stroke="#D8584F" stroke-width="30" stroke-linecap="round"/>
<path d="M629.5 572H739.5V280H822.5V754H677" stroke="#D8584F" stroke-width="30" stroke-linecap="round"/>
<path d="M573.5 484C573.5 416.829 573.5 355.668 573.5 280H533" stroke="#D8584F" stroke-width="30" stroke-linecap="round"/>
<path d="M499.5 200L574 200" stroke="#D8584F" stroke-width="30" stroke-linecap="round"/>
<path d="M664 664.5C697.976 664.695 717.024 664.805 751 665" stroke="#D8584F" stroke-width="30" stroke-linecap="round"/>
</g>
<g filter="url(#filter1_d_7_161)">
<path d="M125 832C241 633.5 257 512.5 125.5 266.5C108.5 215.5 149 203.5 189 207.5C256.5 220.5 292.5 250.5 301.5 263.5M420.5 389.5C604.46 460.295 679.5 634.7 668.5 828M125.5 831H907" stroke="white" stroke-width="30" stroke-linecap="round"/>
<path d="M424.5 389.5C487.46 389.5 526 347.513 526 284C526 220.487 474.96 169 412 169C349.04 169 303 200.987 303 264.5" stroke="white" stroke-width="30" stroke-linecap="round"/>
<ellipse cx="249.251" cy="328.644" rx="23.0695" ry="33.4708" transform="rotate(35.6391 249.251 328.644)" fill="white"/>
</g>
<defs>
<filter id="filter0_d_7_161" x="484.5" y="185" width="437" height="589" filterUnits="userSpaceOnUse" color-interpolation-filters="sRGB">
<feFlood flood-opacity="0" result="BackgroundImageFix"/>
<feColorMatrix in="SourceAlpha" type="matrix" values="0 0 0 0 0 0 0 0 0 0 0 0 0 0 0 0 0 0 127 0" result="hardAlpha"/>
<feOffset dx="5" dy="5"/>
<feComposite in2="hardAlpha" operator="out"/>
<feColorMatrix type="matrix" values="0 0 0 0 0.584314 0 0 0 0 0.6 0 0 0 0 0.533333 0 0 0 1 0"/>
<feBlend mode="normal" in2="BackgroundImageFix" result="effect1_dropShadow_7_161"/>
<feBlend mode="normal" in="SourceGraphic" in2="effect1_dropShadow_7_161" result="shape"/>
</filter>
<filter id="filter1_d_7_161" x="106.518" y="154" width="820.482" height="698.002" filterUnits="userSpaceOnUse" color-interpolation-filters="sRGB">
<feFlood flood-opacity="0" result="BackgroundImageFix"/>
<feColorMatrix in="SourceAlpha" type="matrix" values="0 0 0 0 0 0 0 0 0 0 0 0 0 0 0 0 0 0 127 0" result="hardAlpha"/>
<feOffset dx="5" dy="5"/>
<feComposite in2="hardAlpha" operator="out"/>
<feColorMatrix type="matrix" values="0 0 0 0 0.584314 0 0 0 0 0.6 0 0 0 0 0.533333 0 0 0 1 0"/>
<feBlend mode="normal" in2="BackgroundImageFix" result="effect1_dropShadow_7_161"/>
<feBlend mode="normal" in="SourceGraphic" in2="effect1_dropShadow_7_161" result="shape"/>
</filter>
</defs>
</svg>
